<svg width="180" height="180" viewBox="0 0 180 180" fill="none" xmlns="http://www.w3.org/2000/svg">
<rect width="180" height="180" fill="white"/>
<g clip-path="url(#clip0_15_104)">
<path d="M83.939 4.20432C72.4087 5.24947 62.3281 8.01404 52.2475 12.9363C41.6612 18.1283 32.5921 25.1072 25.0401 33.8392C11.5544 49.5163 4.10352 69.5763 4.10352 90.1758C4.10352 123.047 22.7138 152.918 52.2475 167.415C62.9012 172.641 73.791 175.439 86.9058 176.316L90.1761 176.552V169.135V161.751L86.2315 161.549C55.9224 159.863 30.0635 138.488 22.7812 109.056C16.3755 83.1632 25.1075 56.2255 45.5047 38.9975C63.7778 23.59 89.2658 18.7015 111.989 26.2872C122.542 29.8272 131.409 35.3226 139.23 43.1443C151.199 55.1129 157.841 69.6438 159.459 87.546L159.695 89.8386H167.955H176.249L176.046 85.186C174.968 61.5186 162.932 38.1209 144.052 23.0506C131.746 13.206 116.608 6.76661 100.965 4.74375C95.8738 4.06947 88.1533 3.83347 83.939 4.20432Z" fill="#2071FB"/>
<path d="M86.3661 38.2894C73.7569 39.1322 62.3952 44.3916 53.2586 53.5619C48.7746 58.0459 46.0101 61.8219 43.414 67.0814C39.7392 74.3636 38.2895 80.2974 38.0198 88.8271C37.8512 93.8842 37.9523 95.3339 38.5592 98.9077C41.1215 113.843 49.2466 126.216 61.9569 134.476C69.1043 139.163 77.9712 142.062 86.7369 142.635L90.1758 142.871V116.54V90.1757H103.931C111.483 90.1757 123.25 90.0745 130.094 89.9397L142.534 89.7374L142.332 86.6019C141.523 74.2962 136.128 62.6311 127.093 53.5619C118.125 44.5939 106.392 39.0648 94.7946 38.3905C93.0752 38.2894 91.3221 38.1882 90.8501 38.1208C90.3781 38.0871 88.3552 38.1545 86.3661 38.2894Z" fill="#2071FB"/>
<path d="M87.6233 55.5682C79.1791 56.1318 71.5702 59.6482 65.4515 65.7794C62.4486 68.7774 60.5972 71.302 58.8587 74.8185C56.3976 79.6874 55.4268 83.6546 55.2461 89.3576C55.1333 92.7388 55.201 93.708 55.6074 96.0974C57.3233 106.083 62.7647 114.356 71.2767 119.878C76.0633 123.012 82.0014 124.95 87.8717 125.333L90.1747 125.491V107.886V90.2592H99.3866C104.444 90.2592 112.324 90.1916 116.907 90.1014L125.239 89.9662L125.103 87.8698C124.561 79.6423 120.949 71.843 114.898 65.7794C108.892 59.7834 101.035 56.0867 93.2679 55.6358C92.1164 55.5682 90.9424 55.5006 90.6263 55.4555C90.3102 55.433 88.9555 55.4781 87.6233 55.5682Z" fill="#363636"/>
<path d="M99.2788 138.219V176.484H130.06C163.235 176.484 163.437 176.451 166.91 174.698C170.585 172.81 173.585 169.472 174.866 165.696C175.608 163.606 175.642 163.066 175.642 152.547C175.642 141.961 175.608 141.523 174.866 139.702C174.462 138.657 173.653 137.106 173.113 136.263C172.169 134.881 172.102 134.645 172.405 133.296C172.877 131.24 172.877 114.585 172.405 112.36C171.191 106.662 166.269 101.605 160.605 100.324C159.661 100.088 148.131 99.9529 129.217 99.9529H99.2788V138.219ZM155.919 122.879V128.947H136.027H116.136V122.879V116.81H136.027H155.919V122.879ZM158.785 152.716V159.459L137.477 159.56L116.136 159.627V152.716V145.804L137.477 145.872L158.785 145.973V152.716Z" fill="#363636"/>
</g>
<defs>
<clipPath id="clip0_15_104">
<rect width="172.617" height="172.617" fill="white" transform="translate(3.86719 3.86719)"/>
</clipPath>
</defs>
</svg>
