<svg width="192" height="192" viewBox="0 0 192 192" fill="none" xmlns="http://www.w3.org/2000/svg">
<rect width="192" height="192" fill="white"/>
<g clip-path="url(#clip0_15_96)">
<path d="M89.5348 4.48449C77.2358 5.59931 66.4832 8.54818 55.7306 13.7986C44.4385 19.3368 34.7648 26.7809 26.7093 36.095C12.3245 52.8173 4.37695 74.2146 4.37695 96.1874C4.37695 131.25 24.2279 163.112 55.7306 178.576C67.0945 184.15 78.7102 187.135 92.6994 188.07L96.1877 188.322V180.41V172.534L91.9802 172.319C59.6504 170.521 32.0676 147.721 24.2999 116.326C17.4671 88.7073 26.7812 59.9737 48.5382 41.5972C68.0295 25.1626 95.2167 19.9481 119.455 28.0395C130.711 31.8155 140.169 37.6773 148.512 46.0205C161.279 58.787 168.363 74.2866 170.089 93.3823L170.341 95.8277H179.152H187.998L187.783 90.865C186.632 65.6197 173.794 40.6622 153.655 24.5872C140.529 14.0863 124.382 7.21759 107.696 5.05988C102.265 4.34064 94.03 4.08891 89.5348 4.48449Z" fill="#2071FB"/>
<path d="M92.1238 40.8421C78.674 41.7412 66.5549 47.3513 56.8092 57.1329C52.0263 61.9158 49.0774 65.9436 46.3083 71.5536C42.3885 79.3214 40.8421 85.6507 40.5544 94.7491C40.3746 100.143 40.4825 101.69 41.1298 105.502C43.8629 121.433 52.5297 134.631 66.0874 143.441C73.7113 148.44 83.1693 151.533 92.5194 152.144L96.1875 152.396V124.31V96.1875H110.86C118.915 96.1875 131.466 96.0796 138.766 95.9358L152.036 95.72L151.821 92.3756C150.958 79.2495 145.204 66.8066 135.566 57.1329C126 47.567 113.485 41.6693 101.114 40.95C99.2802 40.8421 97.4102 40.7343 96.9067 40.6623C96.4033 40.6264 94.2456 40.6983 92.1238 40.8421Z" fill="#2071FB"/>
<path d="M93.4648 59.2729C84.4576 59.874 76.3414 63.6249 69.8148 70.1648C66.6117 73.3627 64.6369 76.0556 62.7824 79.8065C60.1573 85 59.1218 89.2317 58.9291 95.3149C58.8087 98.9215 58.8809 99.9554 59.3144 102.504C61.1448 113.156 66.9489 121.98 76.0283 127.87C81.134 131.213 87.468 133.28 93.7297 133.689L96.1862 133.857V115.079V96.2766H106.012C111.407 96.2766 119.812 96.2045 124.701 96.1083L133.588 95.9641L133.443 93.728C132.865 84.9519 129.012 76.6327 122.558 70.1648C116.151 63.7691 107.77 59.8259 99.4856 59.345C98.2574 59.2729 97.005 59.2008 96.6679 59.1527C96.3307 59.1286 94.8857 59.1767 93.4648 59.2729Z" fill="#363636"/>
<path d="M105.897 147.433V188.25H138.731C174.117 188.25 174.333 188.214 178.037 186.344C181.957 184.33 185.158 180.77 186.524 176.742C187.315 174.513 187.351 173.937 187.351 162.717C187.351 151.425 187.315 150.957 186.524 149.016C186.093 147.901 185.229 146.246 184.654 145.347C183.647 143.873 183.575 143.621 183.899 142.183C184.402 139.989 184.402 122.224 183.899 119.85C182.604 113.773 177.354 108.379 171.312 107.012C170.305 106.76 158.006 106.616 137.832 106.616H105.897V147.433ZM166.313 131.071V137.544H145.096H123.878V131.071V124.597H145.096H166.313V131.071ZM169.37 162.897V170.089L146.642 170.197L123.878 170.269V162.897V155.525L146.642 155.597L169.37 155.704V162.897Z" fill="#363636"/>
</g>
<defs>
<clipPath id="clip0_15_96">
<rect width="184.125" height="184.125" fill="white" transform="translate(4.125 4.125)"/>
</clipPath>
</defs>
</svg>
