<svg width="512" height="512" viewBox="0 0 512 512" fill="none" xmlns="http://www.w3.org/2000/svg">
<rect width="512" height="512" fill="white"/>
<g clip-path="url(#clip0_13_17)">
<path d="M238.759 11.9591C205.962 14.932 177.288 22.7957 148.614 36.7968C118.502 51.5652 92.7056 71.4162 71.2243 96.2539C32.8649 140.847 11.6714 197.906 11.6714 256.5C11.6714 350.001 64.6073 434.967 148.614 476.203C178.918 491.068 209.893 499.027 247.198 501.521L256.5 502.192V481.094V460.092L245.28 459.517C159.067 454.722 85.5132 393.923 64.7991 310.203C46.5784 236.553 71.4161 159.93 129.435 110.926C181.412 67.1007 253.911 53.1955 318.546 74.7726C348.563 84.8419 373.784 100.473 396.032 122.722C430.076 156.766 448.968 198.098 453.571 249.02L454.243 255.541H477.738H501.329L500.753 242.307C497.685 174.986 463.449 108.433 409.746 65.5664C374.743 37.564 331.684 19.2474 287.188 13.4935C272.707 11.5755 250.746 10.9043 238.759 11.9591Z" fill="#2071FB"/>
<path d="M245.663 108.912C209.797 111.31 177.48 126.27 151.491 152.354C138.737 165.109 130.873 175.849 123.489 190.809C113.036 211.524 108.912 228.402 108.145 252.664C107.666 267.049 107.953 271.172 109.679 281.338C116.968 323.821 140.079 359.015 176.233 382.51C196.563 395.84 221.785 404.088 246.718 405.718L256.5 406.389V331.492V256.5H295.627C317.108 256.5 350.576 256.212 370.044 255.829L405.43 255.253L404.855 246.335C402.553 211.332 387.21 178.151 361.509 152.354C336 126.845 302.627 111.118 269.638 109.2C264.747 108.912 259.761 108.625 258.418 108.433C257.075 108.337 251.321 108.529 245.663 108.912Z" fill="#2071FB"/>
<path d="M249.24 158.062C225.221 159.664 203.578 169.667 186.173 187.107C177.632 195.634 172.366 202.815 167.42 212.818C160.42 226.667 157.659 237.952 157.145 254.173C156.824 263.791 157.016 266.548 158.172 273.345C163.053 301.749 178.531 325.28 202.743 340.988C216.358 349.901 233.249 355.415 249.947 356.505L256.497 356.954V306.878V256.738H282.7C297.086 256.738 319.5 256.546 332.537 256.289L356.235 255.905L355.85 249.942C354.308 226.539 344.033 204.354 326.821 187.107C309.738 170.051 287.388 159.536 265.296 158.254C262.02 158.062 258.681 157.869 257.782 157.741C256.883 157.677 253.029 157.805 249.24 158.062Z" fill="#363636"/>
<path d="M282.393 393.155V502H369.948C464.312 502 464.887 501.904 474.765 496.917C485.218 491.547 493.753 482.053 497.397 471.313C499.507 465.367 499.603 463.832 499.603 433.912C499.603 403.8 499.507 402.553 497.397 397.375C496.246 394.402 493.945 389.991 492.41 387.593C489.725 383.661 489.533 382.99 490.396 379.154C491.739 373.304 491.739 325.93 490.396 319.601C486.944 303.394 472.943 289.01 456.832 285.365C454.147 284.694 421.349 284.311 367.55 284.311H282.393V393.155ZM443.502 349.521V366.783H386.922H330.342V349.521V332.26H386.922H443.502V349.521ZM451.653 434.392V453.571L391.046 453.859L330.342 454.051V434.392V414.732L391.046 414.924L451.653 415.212V434.392Z" fill="#363636"/>
</g>
<defs>
<clipPath id="clip0_13_17">
<rect width="491" height="491" fill="white" transform="translate(11 11)"/>
</clipPath>
</defs>
</svg>
