<svg width="180" height="180" viewBox="0 0 180 180" fill="none" xmlns="http://www.w3.org/2000/svg">
<rect width="180" height="180" fill="white"/>
<g clip-path="url(#clip0_15_120)">
<path d="M84.98 18.5621C75.3753 19.4327 66.9783 21.7356 58.5812 25.8358C49.7629 30.1607 42.2084 35.974 35.9176 43.2477C24.6841 56.3067 18.4775 73.0166 18.4775 90.1758C18.4775 117.557 33.9798 142.44 58.5812 154.516C67.4557 158.869 76.5268 161.2 87.4514 161.93L90.1755 162.126V155.948V149.798L86.8897 149.629C61.6423 148.225 40.1021 130.42 34.036 105.903C28.7 84.3343 35.9737 61.8954 52.9645 47.5446C68.1859 34.7103 89.4172 30.6381 108.346 36.957C117.136 39.9058 124.522 44.4834 131.037 50.9989C141.007 60.9686 146.54 73.0727 147.888 87.9852L148.084 89.8949H154.965H161.873L161.705 86.0194C160.806 66.3045 150.78 46.8144 135.053 34.2609C124.803 26.0605 112.193 20.6965 99.1623 19.0114C94.9217 18.4498 88.4905 18.2532 84.98 18.5621Z" fill="#2071FB"/>
<path d="M87.0019 46.9548C76.4986 47.6569 67.0343 52.038 59.4236 59.6768C55.6885 63.412 53.3856 66.5573 51.2231 70.9384C48.162 77.0045 46.9544 81.9473 46.7297 89.0525C46.5893 93.265 46.6736 94.4726 47.1791 97.4495C49.3135 109.891 56.0816 120.197 66.6692 127.078C72.623 130.982 80.009 133.397 87.3108 133.874L90.1754 134.071V112.137V90.1758H101.634C107.924 90.1758 117.726 90.0916 123.427 89.9792L133.79 89.8107L133.621 87.1989C132.947 76.9483 128.454 67.2314 120.927 59.6768C113.457 52.2065 103.684 47.6008 94.0229 47.0391C92.5906 46.9548 91.1302 46.8706 90.7371 46.8144C90.3439 46.7863 88.6589 46.8425 87.0019 46.9548Z" fill="#2071FB"/>
<path d="M88.0493 61.3483C81.0153 61.8177 74.6771 64.7469 69.5803 69.8542C67.0789 72.3515 65.5367 74.4545 64.0885 77.3837C62.0385 81.4394 61.2297 84.7441 61.0793 89.4946C60.9853 92.3112 61.0417 93.1186 61.3802 95.1089C62.8096 103.427 67.3422 110.318 74.4326 114.918C78.4198 117.528 83.3662 119.143 88.2562 119.462L90.1746 119.594V104.929V90.2457H97.848C102.061 90.2457 108.625 90.1894 112.443 90.1143L119.383 90.0016L119.27 88.2554C118.818 81.4019 115.809 74.9051 110.769 69.8542C105.766 64.8596 99.221 61.7802 92.7512 61.4047C91.792 61.3483 90.814 61.292 90.5507 61.2544C90.2874 61.2357 89.159 61.2732 88.0493 61.3483Z" fill="#363636"/>
<path d="M97.7583 130.195V162.07H123.399C151.033 162.07 151.202 162.042 154.094 160.582C157.156 159.009 159.655 156.229 160.722 153.083C161.34 151.342 161.368 150.893 161.368 142.131C161.368 133.312 161.34 132.947 160.722 131.431C160.385 130.56 159.711 129.268 159.262 128.566C158.475 127.415 158.419 127.218 158.672 126.095C159.065 124.382 159.065 110.508 158.672 108.655C157.661 103.909 153.561 99.6962 148.843 98.629C148.056 98.4324 138.452 98.3201 122.697 98.3201H97.7583V130.195ZM144.939 117.417V122.472H128.37H111.8V117.417V112.362H128.37H144.939V117.417ZM147.326 142.271V147.888L129.577 147.972L111.8 148.028V142.271V136.514L129.577 136.57L147.326 136.654V142.271Z" fill="#363636"/>
</g>
<defs>
<clipPath id="clip0_15_120">
<rect width="143.789" height="143.789" fill="white" transform="translate(18.2812 18.2812)"/>
</clipPath>
</defs>
</svg>
