<svg width="192" height="192" viewBox="0 0 192 192" fill="none" xmlns="http://www.w3.org/2000/svg">
<rect width="192" height="192" fill="white"/>
<g clip-path="url(#clip0_15_112)">
<path d="M90.6454 19.7997C80.4004 20.7284 71.4436 23.1848 62.4867 27.5583C53.0805 32.1716 45.0223 38.3725 38.3122 46.1311C26.3298 60.0607 19.7095 77.8845 19.7095 96.1877C19.7095 125.395 36.2452 151.936 62.4867 164.817C71.9528 169.46 81.6286 171.947 93.2816 172.725L96.1873 172.935V166.345V159.784L92.6824 159.605C65.7519 158.107 42.7756 139.115 36.3051 112.963C30.6135 89.9568 38.3721 66.0219 56.4955 50.7144C72.7317 37.0245 95.3785 32.6808 115.569 39.4209C124.945 42.5663 132.824 47.4492 139.773 54.399C150.408 65.0334 156.309 77.9444 157.747 93.8511L157.957 95.8881H165.296H172.665L172.485 91.7542C171.527 70.725 160.832 49.9355 144.057 36.5452C133.123 27.798 119.673 22.0764 105.773 20.279C101.25 19.6799 94.3899 19.4702 90.6454 19.7997Z" fill="#2071FB"/>
<path d="M92.8021 50.0851C81.5985 50.834 71.5034 55.5072 63.3853 63.6552C59.4011 67.6394 56.9447 70.9944 54.6381 75.6676C51.3729 82.1381 50.0848 87.4104 49.8451 94.9892C49.6953 99.4826 49.7852 100.771 50.3244 103.946C52.6011 117.217 59.8205 128.21 71.1139 135.55C77.4646 139.714 85.3431 142.29 93.1316 142.799L96.1871 143.009V119.613V96.1875H108.409C115.119 96.1875 125.574 96.0976 131.655 95.9778L142.709 95.798L142.529 93.0121C141.81 82.0782 137.017 71.7134 128.989 63.6552C121.021 55.6869 110.596 50.7741 100.291 50.175C98.7634 50.0851 97.2056 49.9952 96.7863 49.9353C96.3669 49.9054 94.5695 49.9653 92.8021 50.0851Z" fill="#2071FB"/>
<path d="M93.9194 65.4379C86.4164 65.9387 79.6557 69.0631 74.2191 74.5109C71.5509 77.1747 69.9059 79.4179 68.3612 82.5423C66.1745 86.8685 65.3118 90.3935 65.1513 95.4607C65.051 98.465 65.1112 99.3262 65.4723 101.449C66.997 110.322 71.8318 117.672 79.3949 122.579C83.6479 125.363 88.9241 127.086 94.14 127.426L96.1863 127.566V111.924V96.2618H104.371C108.865 96.2618 115.867 96.2017 119.939 96.1216L127.342 96.0015L127.221 94.1388C126.74 86.8284 123.53 79.8985 118.154 74.5109C112.817 69.1833 105.836 65.8986 98.9347 65.498C97.9116 65.4379 96.8684 65.3779 96.5875 65.3378C96.3067 65.3178 95.103 65.3578 93.9194 65.4379Z" fill="#363636"/>
<path d="M104.275 138.875V172.875H131.625C161.102 172.875 161.282 172.845 164.367 171.287C167.632 169.61 170.299 166.644 171.437 163.289C172.096 161.432 172.126 160.952 172.126 151.606C172.126 142.2 172.096 141.811 171.437 140.193C171.077 139.264 170.358 137.886 169.879 137.137C169.04 135.909 168.98 135.7 169.25 134.501C169.669 132.674 169.669 117.876 169.25 115.899C168.172 110.836 163.798 106.343 158.765 105.204C157.927 104.995 147.682 104.875 130.876 104.875H104.275V138.875ZM154.602 125.245V130.637H136.927H119.253V125.245V119.853H136.927H154.602V125.245ZM157.148 151.756V157.747L138.216 157.837L119.253 157.897V151.756V145.615L138.216 145.675L157.148 145.765V151.756Z" fill="#363636"/>
</g>
<defs>
<clipPath id="clip0_15_112">
<rect width="153.375" height="153.375" fill="white" transform="translate(19.5 19.5)"/>
</clipPath>
</defs>
</svg>
