<svg width="512" height="512" viewBox="0 0 512 512" fill="none" xmlns="http://www.w3.org/2000/svg">
<rect width="512" height="512" fill="white"/>
<g clip-path="url(#clip0_14_72)">
<path d="M241.722 52.7988C214.402 55.2751 190.517 61.8255 166.632 73.4884C141.549 85.7904 120.06 102.326 102.166 123.016C70.2132 160.161 52.5591 207.692 52.5591 256.5C52.5591 334.386 96.6544 405.162 166.632 439.511C191.875 451.893 217.677 458.524 248.751 460.6L256.5 461.16V443.585V426.091L247.154 425.612C175.339 421.618 114.069 370.972 96.8142 301.234C81.6364 239.884 102.326 176.058 150.655 135.238C193.952 98.7314 254.343 87.1484 308.184 105.122C333.187 113.51 354.197 126.531 372.729 145.063C401.088 173.422 416.825 207.851 420.659 250.269L421.218 255.701H440.79H460.441L459.961 244.677C457.405 188.6 428.887 133.161 384.153 97.4532C354.995 74.1275 319.128 58.8698 282.062 54.0769C270 52.4792 251.707 51.92 241.722 52.7988Z" fill="#2071FB"/>
<path d="M247.473 133.56C217.597 135.558 190.676 148.019 169.028 169.747C158.404 180.372 151.853 189.319 145.702 201.78C136.995 219.035 133.56 233.094 132.921 253.305C132.522 265.287 132.761 268.722 134.199 277.19C140.27 312.578 159.522 341.895 189.638 361.466C206.573 372.57 227.582 379.44 248.352 380.798L256.5 381.357V318.968V256.5H289.092C306.986 256.5 334.865 256.26 351.081 255.941L380.558 255.462L380.078 248.033C378.161 218.875 365.38 191.236 343.971 169.747C322.723 148.499 294.923 135.398 267.444 133.8C263.37 133.56 259.216 133.321 258.097 133.161C256.979 133.081 252.186 133.241 247.473 133.56Z" fill="#2071FB"/>
<path d="M250.452 174.501C230.444 175.836 212.416 184.168 197.918 198.695C190.803 205.799 186.416 211.781 182.297 220.112C176.466 231.649 174.165 241.049 173.737 254.562C173.47 262.573 173.63 264.87 174.593 270.531C178.659 294.191 191.552 313.793 211.72 326.878C223.062 334.302 237.131 338.895 251.041 339.803L256.497 340.177V298.464V256.698H278.324C290.307 256.698 308.978 256.538 319.838 256.324L339.578 256.004L339.257 251.037C337.973 231.542 329.414 213.062 315.076 198.695C300.846 184.488 282.229 175.729 263.826 174.661C261.098 174.501 258.316 174.341 257.567 174.234C256.818 174.18 253.608 174.287 250.452 174.501Z" fill="#363636"/>
<path d="M278.068 370.333V461H351.001C429.606 461 430.085 460.92 438.313 456.766C447.021 452.293 454.13 444.384 457.166 435.437C458.923 430.485 459.003 429.207 459.003 404.283C459.003 379.2 458.923 378.162 457.166 373.848C456.207 371.371 454.29 367.697 453.012 365.7C450.775 362.425 450.615 361.865 451.334 358.67C452.453 353.797 452.453 314.335 451.334 309.063C448.458 295.563 436.796 283.58 423.375 280.545C421.138 279.986 393.819 279.666 349.004 279.666H278.068V370.333ZM412.271 333.986V348.365H365.141H318.01V333.986V319.607H365.141H412.271V333.986ZM419.062 404.683V420.659L368.576 420.899L318.01 421.059V404.683V388.307L368.576 388.466L419.062 388.706V404.683Z" fill="#363636"/>
</g>
<defs>
<clipPath id="clip0_14_72">
<rect width="409" height="409" fill="white" transform="translate(52 52)"/>
</clipPath>
</defs>
</svg>
